<svg width="18" height="18" viewBox="0 0 18 18" fill="none" xmlns="http://www.w3.org/2000/svg">
<path fill-rule="evenodd" clip-rule="evenodd" d="M13.6477 0.760248C14.4827 0.678284 15.3106 1.04499 16.1329 1.86731C16.9552 2.68963 17.3219 3.5175 17.24 4.35251C17.1609 5.15802 16.6751 5.82561 16.1329 6.36781L10.2164 12.2843C10.0475 12.4478 9.82671 12.5906 9.61369 12.6976C9.40193 12.8041 9.15249 12.8979 8.9147 12.9319L6.65433 13.2548C6.09777 13.3314 5.56525 13.1795 5.19164 12.8074C4.81724 12.4345 4.66409 11.9018 4.74594 11.342L4.74611 11.3409L5.06804 9.08732L5.06818 9.08633C5.10196 8.84539 5.19535 8.59418 5.30256 8.38089C5.40999 8.16714 5.55464 7.94507 5.7224 7.77731L10.7727 2.72705C10.7807 2.71849 10.789 2.71017 10.7976 2.7021L11.6324 1.86731C12.1746 1.32511 12.8422 0.839317 13.6477 0.760248ZM10.959 4.13168L6.51789 8.5728C6.46066 8.63004 6.3803 8.74172 6.30773 8.8861C6.23509 9.03064 6.19359 9.16153 6.18225 9.24279L6.18199 9.24461L5.85949 11.5021L5.85918 11.5043C5.82141 11.7616 5.89706 11.9221 5.98552 12.0103C6.07489 12.0993 6.23946 12.176 6.49962 12.1405L6.50096 12.1403L8.7556 11.8182C8.8328 11.8072 8.96212 11.766 9.10847 11.6925C9.25153 11.6206 9.36706 11.5397 9.43124 11.4785L13.8697 7.04001C12.582 6.44838 11.5484 5.41608 10.959 4.13168ZM14.732 6.17766C13.3706 5.69163 12.3023 4.62278 11.8218 3.26892L12.4279 2.66281C12.9057 2.185 13.3406 1.9208 13.7576 1.87987C14.1451 1.84183 14.6597 1.98513 15.3374 2.66281C16.0151 3.34048 16.1584 3.85512 16.1203 4.24261C16.0794 4.6596 15.8152 5.09451 15.3374 5.57231L14.732 6.17766ZM2.321 2.32106C3.32185 1.32021 4.81952 0.937559 6.75 0.937559H8.25C8.56066 0.937559 8.8125 1.1894 8.8125 1.50006C8.8125 1.81072 8.56066 2.06256 8.25 2.06256H6.75C4.93048 2.06256 3.80315 2.42991 3.1165 3.11656C2.42985 3.80321 2.0625 4.93054 2.0625 6.75006V11.2501C2.0625 13.0696 2.42985 14.1969 3.1165 14.8836C3.80315 15.5702 4.93048 15.9376 6.75 15.9376H11.25C13.0695 15.9376 14.1969 15.5702 14.8835 14.8836C15.5702 14.1969 15.9375 13.0696 15.9375 11.2501V9.75006C15.9375 9.4394 16.1893 9.18756 16.5 9.18756C16.8107 9.18756 17.0625 9.4394 17.0625 9.75006V11.2501C17.0625 13.1805 16.6798 14.6782 15.679 15.6791C14.6781 16.6799 13.1805 17.0626 11.25 17.0626H6.75C4.81952 17.0626 3.32185 16.6799 2.321 15.6791C1.32015 14.6782 0.9375 13.1805 0.9375 11.2501V6.75006C0.9375 4.81958 1.32015 3.32191 2.321 2.32106Z" fill="#4B8E4B"/>
</svg>
