<svg width="24" height="24" viewBox="0 0 24 24" fill="none" xmlns="http://www.w3.org/2000/svg">
<path d="M24 12C24 5.37258 18.6274 0 12 0C5.37258 0 0 5.37258 0 12C0 18.6274 5.37258 24 12 24C18.6274 24 24 18.6274 24 12Z" fill="white"/>
<path fill-rule="evenodd" clip-rule="evenodd" d="M20.9998 12.2089C20.9998 11.5572 20.9413 10.9305 20.8327 10.3289H12.1759V13.8843H17.1226C16.9095 15.0332 16.262 16.0067 15.2885 16.6585V18.9647H18.259C19.9971 17.3646 20.9998 15.0082 20.9998 12.2089Z" fill="#4285F4"/>
<path fill-rule="evenodd" clip-rule="evenodd" d="M12.1759 21.1917C14.6576 21.1917 16.7383 20.3687 18.259 18.9649L15.2885 16.6586C14.4654 17.2101 13.4126 17.536 12.1759 17.536C9.78195 17.536 7.75563 15.9191 7.03284 13.7466H3.96204V16.128C5.47446 19.132 8.58287 21.1917 12.1759 21.1917Z" fill="#34A853"/>
<path fill-rule="evenodd" clip-rule="evenodd" d="M7.03283 13.7465C6.849 13.195 6.74455 12.606 6.74455 12.0001C6.74455 11.3943 6.849 10.8052 7.03283 10.2538V7.87231H3.96202C3.3395 9.11317 2.98438 10.517 2.98438 12.0001C2.98438 13.4833 3.3395 14.8871 3.96202 16.128L7.03283 13.7465Z" fill="#FBBC05"/>
<path fill-rule="evenodd" clip-rule="evenodd" d="M12.1759 6.46432C13.5254 6.46432 14.737 6.92807 15.6896 7.83887L18.3259 5.20257C16.7341 3.71939 14.6535 2.80859 12.1759 2.80859C8.58287 2.80859 5.47446 4.86833 3.96204 7.87229L7.03284 10.2537C7.75563 8.08119 9.78195 6.46432 12.1759 6.46432Z" fill="#EA4335"/>
</svg>
