<svg width="24" height="24" viewBox="0 0 24 24" fill="none" xmlns="http://www.w3.org/2000/svg">
<path d="M7.43347 13.0773L7.43352 13.0778C7.49146 13.6102 7.63115 14.1304 7.84771 14.6201C7.93897 14.8259 8.04363 15.0255 8.16106 15.2175C11.3484 13.8015 13.654 12.1128 15.3192 10.4323L15.0405 7.61834C15.0389 7.60648 15.0378 7.59454 15.0372 7.58263M7.43347 13.0773L15.137 7.57706M7.43347 13.0773C7.31263 12.0088 7.51896 10.9287 8.02523 9.97991L7.43347 13.0773ZM15.0372 7.58263L15.137 7.57706M15.0372 7.58263C15.0372 7.58264 15.0372 7.58265 15.0372 7.58266L15.137 7.57706M15.0372 7.58263C15.0228 7.32688 15.2185 7.10791 15.4743 7.09356C15.7293 7.07925 15.9477 7.27378 15.9633 7.52842M15.137 7.57706C15.1257 7.37644 15.2793 7.20466 15.4799 7.1934C15.6805 7.18215 15.8523 7.33568 15.8635 7.5363M15.9633 7.52842L15.9631 7.52642L15.8635 7.5363M15.9633 7.52842C15.9633 7.52918 15.9633 7.52994 15.9634 7.5307L15.8635 7.5363M15.9633 7.52842L15.8635 7.5363M19.7062 2.15448L19.7057 2.15555L20.5695 2.24322C20.5694 2.24288 20.5693 2.24255 20.5692 2.24221C20.5351 2.11794 20.4508 2.01337 20.3365 1.95373C20.1101 1.83421 19.8297 1.92069 19.7099 2.14695L19.7095 2.14771C19.7087 2.14913 19.7075 2.1515 19.7062 2.15448ZM16.1752 9.66343C16.1452 9.69696 16.115 9.73037 16.0847 9.76364L16.0714 9.62942C16.1017 9.59578 16.1318 9.56202 16.1618 9.52813L16.1752 9.66343ZM19.2872 4.01997C19.3408 3.96573 19.3923 3.91222 19.4418 3.85957C19.4201 3.93094 19.3979 4.00213 19.3752 4.07312C19.3251 4.12412 19.2732 4.17576 19.2194 4.22792C19.2425 4.15879 19.2651 4.08947 19.2872 4.01997ZM18.5284 15.1215L18.5055 15.1493V15.1513C17.7587 16.0516 16.8062 16.7591 15.7282 17.2139L15.7281 17.2139C14.7274 17.6368 13.6413 17.8188 12.5575 17.745L12.5557 17.7449C11.0977 17.6711 9.72666 17.036 8.7281 15.9758C9.87456 15.4616 10.9844 14.8693 12.0499 14.2032L15.2057 14.7991L15.2057 14.7991L15.2088 14.7996C15.4619 14.8392 15.6992 14.6662 15.7389 14.4131C15.7771 14.169 15.6173 13.9377 15.3754 13.8873L15.3754 13.8872L15.3735 13.8869L13.1533 13.4668C14.2166 12.7189 15.2094 11.8752 16.1191 10.9461C16.1391 10.9287 16.1574 10.9096 16.174 10.8891C18.5369 8.42768 19.6425 5.98948 20.1525 4.35589C21.26 9.43373 20.311 12.9654 18.5284 15.1215Z" fill="white" stroke="white" stroke-width="0.2"/>
</svg>
