<svg width="40" height="40" viewBox="0 0 40 40" fill="none" xmlns="http://www.w3.org/2000/svg">
<rect width="40" height="40" rx="8" fill="#8A8D91" fill-opacity="0.05"/>
<g opacity="0.8">
<path d="M23.2453 26.2532L16.7539 26.2532L16.7539 14.5872L23.2453 14.5872L23.2453 26.2532Z" fill="#FF5F00"/>
<path d="M17.1699 20.4192C17.1699 18.0527 18.2779 15.9447 20.0034 14.5862C18.7416 13.5928 17.1491 12.9999 15.4184 12.9999C11.3212 12.9999 8 16.3216 8 20.4192C8 24.5169 11.3212 27.8386 15.4184 27.8386C17.1491 27.8386 18.7416 27.2457 20.0034 26.2523C18.2779 24.8938 17.1699 22.7858 17.1699 20.4192Z" fill="#EB001B"/>
<path d="M32.0009 20.4192C32.0009 24.5169 28.6797 27.8386 24.5825 27.8386C22.8518 27.8386 21.2593 27.2457 19.9971 26.2523C21.723 24.8938 22.831 22.7858 22.831 20.4192C22.831 18.0527 21.723 15.9447 19.9971 14.5862C21.2593 13.5928 22.8518 12.9999 24.5825 12.9999C28.6797 12.9999 32.0009 16.3216 32.0009 20.4192Z" fill="#F79E1B"/>
</g>
</svg>
