<svg width="24" height="15" viewBox="0 0 24 15" fill="none" xmlns="http://www.w3.org/2000/svg">
<g opacity="0.8">
<path d="M15.2453 13.2532L8.75391 13.2532L8.75391 1.58716L15.2453 1.58716L15.2453 13.2532Z" fill="#FF5F00"/>
<path d="M9.16986 7.41925C9.16986 5.05273 10.2779 2.9447 12.0034 1.5862C10.7416 0.592799 9.1491 -0.000126839 7.41843 -0.000126839C3.32124 -0.000126839 -1.86677e-09 3.32159 -1.20259e-09 7.41925C-5.38408e-10 11.5169 3.32124 14.8386 7.41843 14.8386C9.1491 14.8386 10.7416 14.2457 12.0034 13.2523C10.2779 11.8938 9.16986 9.78577 9.16986 7.41925Z" fill="#EB001B"/>
<path d="M24.0009 7.41925C24.0009 11.5169 20.6797 14.8386 16.5825 14.8386C14.8518 14.8386 13.2593 14.2457 11.9971 13.2523C13.723 11.8938 14.831 9.78577 14.831 7.41925C14.831 5.05273 13.723 2.9447 11.9971 1.5862C13.2593 0.592799 14.8518 -0.000126838 16.5825 -0.000126838C20.6797 -0.000126838 24.0009 3.32159 24.0009 7.41925Z" fill="#F79E1B"/>
</g>
</svg>
