<svg width="20" height="20" viewBox="0 0 20 20" fill="none" xmlns="http://www.w3.org/2000/svg">
<path d="M8.549 18.7499C9.48844 18.7499 10.25 17.9883 10.25 17.0489C10.25 16.1095 9.48844 15.3479 8.549 15.3479C7.60956 15.3479 6.848 16.1095 6.848 17.0489C6.848 17.9883 7.60956 18.7499 8.549 18.7499Z" stroke="black" stroke-width="1.5" stroke-linecap="round" stroke-linejoin="round"/>
<path d="M15.96 18.7499C16.8994 18.7499 17.661 17.9883 17.661 17.0489C17.661 16.1095 16.8994 15.3479 15.96 15.3479C15.0206 15.3479 14.259 16.1095 14.259 17.0489C14.259 17.9883 15.0206 18.7499 15.96 18.7499Z" stroke="black" stroke-width="1.5" stroke-linecap="round" stroke-linejoin="round"/>
<path d="M4.606 3.555L6.616 9.919C6.925 10.897 7.079 11.386 7.376 11.748C7.636 12.068 7.975 12.315 8.358 12.468C8.793 12.641 9.305 12.641 10.331 12.641H14.186C15.212 12.641 15.724 12.641 16.158 12.468C16.542 12.315 16.88 12.068 17.141 11.748C17.437 11.386 17.591 10.897 17.901 9.919L18.31 8.623L18.55 7.857L18.881 6.807C18.9991 6.4325 19.0274 6.03544 18.9634 5.648C18.8995 5.26055 18.7452 4.89361 18.513 4.57691C18.2809 4.26021 17.9774 4.00266 17.6271 3.82511C17.2768 3.64757 16.8897 3.55503 16.497 3.555H4.606ZM4.606 3.555L4.595 3.518C4.55277 3.37656 4.50608 3.23649 4.455 3.098C4.25255 2.58554 3.90923 2.14082 3.46473 1.81523C3.02022 1.48963 2.49266 1.29645 1.943 1.258C1.84 1.25 1.727 1.25 1.5 1.25" stroke="black" stroke-width="1.5" stroke-linecap="round" stroke-linejoin="round"/>
</svg>
