<svg width="24" height="24" viewBox="0 0 24 24" fill="none" xmlns="http://www.w3.org/2000/svg">
<path fill-rule="evenodd" clip-rule="evenodd" d="M9.36744 21.4698C10.0093 21.8233 10.8186 22 11.6372 22C12.4558 22 13.2651 21.8233 13.907 21.4698L18.8744 18.7163C20.2233 17.9628 21.2744 16.1767 21.2744 14.6326V9.37674C21.2744 7.83256 20.2233 6.03721 18.8744 5.29302L13.907 2.53023C12.6326 1.82326 10.6419 1.82326 9.36744 2.53023L4.4 5.28372C3.05116 6.03721 2 7.82326 2 9.36744V14.6233C2 16.1674 3.05116 17.9628 4.4 18.707L9.36744 21.4698ZM10.0465 3.74884C10.4744 3.51628 11.0512 3.39535 11.6372 3.39535C12.2233 3.39535 12.8 3.51628 13.2279 3.73953L18.1953 6.50233C18.533 6.69225 18.856 7.00185 19.1272 7.36879L11.6372 11.7023L4.14886 7.36884C4.4197 7.00422 4.7421 6.69766 5.07907 6.51163L10.0465 3.74884ZM3.51407 8.61992L10.9395 12.9171V20.5488C10.6075 20.4916 10.2986 20.3924 10.0465 20.2512L5.07907 17.4884C4.18605 16.986 3.39535 15.6465 3.39535 14.6233V9.36744C3.39535 9.13042 3.43777 8.87643 3.51407 8.61992ZM12.3349 20.5488C12.6669 20.4916 12.9758 20.3924 13.2279 20.2512L18.1953 17.4884C19.0884 16.986 19.8791 15.6558 19.8791 14.6233V9.36744C19.8791 9.13075 19.8368 8.87714 19.7607 8.62088L12.3349 12.9223V20.5488Z" fill="#0E110E"/>
</svg>
