<svg width="40" height="40" viewBox="0 0 40 40" fill="none" xmlns="http://www.w3.org/2000/svg">
<rect width="40" height="40" rx="8" fill="#8A8D91" fill-opacity="0.05"/>
<path fill-rule="evenodd" clip-rule="evenodd" d="M18.6441 13.6494H25.4133C29.0478 13.6494 30.416 15.4894 30.2046 18.1925C29.8551 22.6553 27.1572 25.1243 23.5786 25.1243H21.7719C21.2809 25.1243 20.9506 25.4493 20.8178 26.33L20.0507 31.4497C20 31.7817 19.8253 31.9739 19.5632 32.0001H15.3101C14.91 32.0001 14.7685 31.6943 14.8733 31.0321L17.4664 14.6192C17.5677 13.9622 17.9277 13.6494 18.6441 13.6494Z" fill="#009EE3"/>
<path fill-rule="evenodd" clip-rule="evenodd" d="M14.41 8H21.1863C23.0944 8 25.3589 8.06116 26.8721 9.39788C27.8839 10.2908 28.4151 11.7114 28.2927 13.2421C27.8769 18.416 24.7823 21.3148 20.6306 21.3148H17.2897C16.72 21.3148 16.3443 21.6923 16.1836 22.7127L15.2505 28.6537C15.1893 29.0381 15.0233 29.2653 14.7263 29.2932H10.5449C10.0818 29.2932 9.91758 28.9438 10.0381 28.1714L13.0436 9.12879C13.1642 8.36345 13.5853 8 14.41 8Z" fill="#113984"/>
<path fill-rule="evenodd" clip-rule="evenodd" d="M16.2822 22.1099L17.4652 14.619C17.5683 13.962 17.9282 13.6475 18.6446 13.6475H25.4139C26.5339 13.6475 27.4408 13.8222 28.1502 14.1455C27.4705 18.7515 24.4913 21.3096 20.5912 21.3096H17.2555C16.8082 21.3113 16.4797 21.535 16.2822 22.1099Z" fill="#172C70"/>
</svg>
