<svg width="16" height="16" viewBox="0 0 16 16" fill="none" xmlns="http://www.w3.org/2000/svg">
<path fill-rule="evenodd" clip-rule="evenodd" d="M6.5 1.5C5.17392 1.5 3.90215 2.02678 2.96447 2.96447C2.02678 3.90215 1.5 5.17392 1.5 6.5C1.5 7.82608 2.02678 9.09785 2.96447 10.0355C3.90215 10.9732 5.17392 11.5 6.5 11.5C7.82608 11.5 9.09785 10.9732 10.0355 10.0355C10.9732 9.09785 11.5 7.82608 11.5 6.5C11.5 5.17392 10.9732 3.90215 10.0355 2.96447C9.09785 2.02678 7.82608 1.5 6.5 1.5ZM0 6.5C0 4.77609 0.684819 3.12279 1.90381 1.90381C3.12279 0.684819 4.77609 0 6.5 0C8.22391 0 9.87721 0.684819 11.0962 1.90381C12.3152 3.12279 13 4.77609 13 6.5C13 8.22391 12.3152 9.87721 11.0962 11.0962C9.87721 12.3152 8.22391 13 6.5 13C4.77609 13 3.12279 12.3152 1.90381 11.0962C0.684819 9.87721 0 8.22391 0 6.5Z" fill="black"/>
<path fill-rule="evenodd" clip-rule="evenodd" d="M10.47 10.4701C10.6106 10.3296 10.8013 10.2507 11 10.2507C11.1988 10.2507 11.3894 10.3296 11.53 10.4701L15.53 14.4701C15.6037 14.5387 15.6628 14.6215 15.7038 14.7135C15.7448 14.8055 15.7668 14.9048 15.7686 15.0056C15.7704 15.1063 15.7519 15.2063 15.7141 15.2997C15.6764 15.3931 15.6203 15.4779 15.549 15.5491C15.4778 15.6203 15.393 15.6765 15.2996 15.7142C15.2062 15.7519 15.1062 15.7704 15.0055 15.7687C14.9048 15.7669 14.8055 15.7448 14.7135 15.7039C14.6215 15.6629 14.5387 15.6038 14.47 15.5301L10.47 11.5301C10.3296 11.3894 10.2507 11.1988 10.2507 11.0001C10.2507 10.8013 10.3296 10.6107 10.47 10.4701Z" fill="black"/>
</svg>
