<svg width="24" height="24" viewBox="0 0 24 24" fill="none" xmlns="http://www.w3.org/2000/svg">
<path fill-rule="evenodd" clip-rule="evenodd" d="M7.9713 3.59392C8.38214 3.3495 8.93536 3.48564 9.19805 3.92329L9.30194 4.10272L9.3028 4.10423C9.82294 5.01075 10.6117 5.6283 11.5512 5.6283C12.4901 5.6283 13.2814 5.01109 13.8063 4.10545L13.9117 3.9233C14.1744 3.48564 14.7276 3.34959 15.1384 3.59401L16.8475 4.57201C17.3845 4.8789 17.5695 5.57439 17.2625 6.10618C16.7376 7.01199 16.5966 8.00472 17.0656 8.81854C17.5346 9.6324 18.4641 10.0078 19.5091 10.0078C20.1258 10.0078 20.6377 10.5149 20.6377 11.1364V12.8636C20.6377 13.4803 20.1305 13.9922 19.5091 13.9922C18.4641 13.9922 17.5346 14.3676 17.0656 15.1815C16.5969 15.9948 16.7375 16.9867 17.2615 17.8921C17.571 18.4358 17.3828 19.1221 16.8471 19.4282L15.1492 20.3997L15.1385 20.4061C14.7276 20.6505 14.1744 20.5144 13.9117 20.0767L13.8079 19.8973L13.8071 19.8961C13.287 18.9894 12.4982 18.3717 11.5586 18.3717C10.6197 18.3717 9.82843 18.9889 9.30351 19.8946L9.19803 20.0767C8.93533 20.5144 8.38218 20.6504 7.97136 20.406L6.26234 19.428C5.72533 19.1211 5.54034 18.4258 5.84719 17.894C6.37213 16.9881 6.5132 15.9953 6.04419 15.1815C5.57519 14.3676 4.64567 13.9922 3.60069 13.9922C2.97925 13.9922 2.47209 13.4803 2.47209 12.8636V11.1364C2.47209 10.5197 2.97925 10.0078 3.60069 10.0078C4.64567 10.0078 5.57519 9.6324 6.04419 8.81854C6.51321 8.00466 6.37213 7.01184 5.84717 6.10596C5.54035 5.57421 5.72574 4.87864 6.26274 4.57178L7.9606 3.60029L7.9713 3.59392ZM5.84717 6.10596C5.84711 6.10586 5.84705 6.10575 5.84699 6.10565L5.21018 6.47475L5.8475 6.10652C5.84739 6.10634 5.84728 6.10615 5.84717 6.10596ZM10.4651 3.17386C9.80563 2.06537 8.36234 1.65272 7.22448 2.32533L5.53158 3.2941C4.28294 4.0079 3.85957 5.60843 4.57286 6.84298L4.57337 6.84386C4.94133 7.47869 4.88358 7.88422 4.76873 8.08353C4.65381 8.28295 4.33204 8.53568 3.60069 8.53568C2.16121 8.53568 1 9.71174 1 11.1364V12.8636C1 14.2883 2.16121 15.4643 3.60069 15.4643C4.33204 15.4643 4.65381 15.717 4.76873 15.9165C4.88358 16.1158 4.94133 16.5213 4.57337 17.1561L4.57286 17.157C3.85957 18.3916 4.28333 19.9923 5.53198 20.7061L7.22456 21.6747C8.36241 22.3473 9.80569 21.9346 10.4652 20.8262L10.5775 20.6321C10.9456 19.9972 11.3272 19.8438 11.5586 19.8438C11.7888 19.8438 12.1676 19.9959 12.5307 20.6294L12.5323 20.6321L12.6402 20.8186L12.6447 20.8261C13.3041 21.9346 14.7474 22.3473 15.8852 21.6747L17.5782 20.7059C18.8277 19.9916 19.2484 18.4021 18.5387 17.1601L18.5364 17.1561C18.1685 16.5213 18.2262 16.1158 18.3411 15.9165C18.456 15.717 18.7778 15.4643 19.5091 15.4643C20.9486 15.4643 22.1098 14.2883 22.1098 12.8636V11.1364C22.1098 9.69689 20.9337 8.53568 19.5091 8.53568C18.7778 8.53568 18.456 8.28295 18.3411 8.08353C18.2262 7.88422 18.1685 7.47869 18.5364 6.84386L18.5369 6.84298C19.2503 5.6083 18.8268 4.00756 17.5778 3.29387L15.8853 2.32534C14.7475 1.65272 13.3041 2.06534 12.6446 3.17384L12.5323 3.36787C12.1642 4.00276 11.7826 4.15621 11.5512 4.15621C11.321 4.15621 10.9422 4.00405 10.5791 3.3706L10.5775 3.36788L10.4696 3.18139L10.4651 3.17386ZM9.34185 12C9.34185 10.7805 10.3305 9.79185 11.55 9.79185C12.7695 9.79185 13.7581 10.7805 13.7581 12C13.7581 13.2195 12.7695 14.2081 11.55 14.2081C10.3305 14.2081 9.34185 13.2195 9.34185 12ZM11.55 8.31976C9.51745 8.31976 7.86976 9.96746 7.86976 12C7.86976 14.0325 9.51745 15.6802 11.55 15.6802C13.5825 15.6802 15.2302 14.0325 15.2302 12C15.2302 9.96746 13.5825 8.31976 11.55 8.31976Z" fill="#0E110E"/>
</svg>
