<svg width="23" height="22" viewBox="0 0 23 22" fill="none" xmlns="http://www.w3.org/2000/svg">
<path d="M12.7003 3.21742L14.3283 6.44409C14.5503 6.89326 15.1423 7.32409 15.6418 7.40659L18.5926 7.89242C20.4796 8.20409 20.9236 9.56076 19.5638 10.8991L17.2698 13.1724C16.8813 13.5574 16.6686 14.2999 16.7888 14.8316L17.4456 17.6458C17.9636 19.8733 16.7703 20.7349 14.7816 19.5708L12.0158 17.9483C11.5163 17.6549 10.6931 17.6549 10.1843 17.9483L7.41859 19.5708C5.43909 20.7349 4.23659 19.8641 4.75459 17.6458L5.41134 14.8316C5.53159 14.2999 5.31884 13.5574 4.93034 13.1724L2.63634 10.8991C1.28584 9.56076 1.72059 8.20409 3.60759 7.89242L6.55834 7.40659C7.04859 7.32409 7.64059 6.89326 7.86259 6.44409L9.49059 3.21742C10.3786 1.46659 11.8216 1.46659 12.7003 3.21742Z" fill="#4B8E4B"/>
</svg>
