<svg width="24" height="24" viewBox="0 0 24 24" fill="none" xmlns="http://www.w3.org/2000/svg">
<path fill-rule="evenodd" clip-rule="evenodd" d="M6.54232 3.5C5.40488 3.5 4.5 4.40866 4.5 5.51437V15.6691C4.5 16.7748 5.40488 17.6835 6.54232 17.6835H7.2404C8.16834 17.6835 9.07671 18.0466 9.7423 18.7113L9.74396 18.7129L11.3322 20.2826L11.3323 20.2827C11.7661 20.7108 12.4782 20.7109 12.9121 20.2829L10.6953 14.4421C10.6702 14.4446 10.6448 14.4459 10.6191 14.4459H8.12463C7.334 14.4459 6.57817 13.6798 6.87136 12.7758L6.87246 12.7723L6.87247 12.7723C7.21105 11.7451 8.09793 11.1484 8.71321 10.7344L8.71333 10.7343L8.7136 10.7342C8.773 10.6942 8.82987 10.6559 8.88347 10.6191C8.9875 10.5477 9.08204 10.4808 9.16767 10.4172L8.53841 8.75921C8.34691 8.91049 8.22309 9.14447 8.22309 9.40504C8.22309 9.81926 7.8873 10.155 7.47309 10.155C7.05888 10.155 6.72309 9.81926 6.72309 9.40504C6.72309 8.50231 7.2421 7.71726 7.99711 7.33303L6.54232 3.5ZM6.54232 3.5H17.7116C18.849 3.5 19.7539 4.40866 19.7539 5.51437V15.6691C19.7539 16.7672 18.8474 17.6835 17.7116 17.6835H17.0042C16.0656 17.6835 15.1669 18.0475 14.5023 18.7113L14.5006 18.7129L12.9124 20.2826L10.6956 14.442C11.0739 14.4037 11.3691 14.0843 11.3691 13.6959C11.3691 13.2817 11.0333 12.9459 10.6191 12.9459H10.1277L9.71772 11.8659L9.73228 11.8559C10.3921 11.403 11.3691 10.716 11.3691 9.40504C11.3691 8.12525 10.326 7.08198 9.0461 7.08198C8.66904 7.08198 8.31254 7.17253 7.9972 7.33299L6.54232 3.5ZM9.16781 10.4171L8.53851 8.75913C8.67877 8.64838 8.85531 8.58198 9.0461 8.58198C9.49747 8.58198 9.8691 8.9536 9.8691 9.40504C9.8691 9.78049 9.67476 10.0404 9.16781 10.4171ZM10.1274 12.9459L9.71755 11.866L9.64794 11.9137C9.07325 12.3077 8.66631 12.5867 8.43773 12.9459H10.1274ZM3 5.51437C3 3.56714 4.58959 2 6.54232 2H17.7116C19.6643 2 21.2539 3.56714 21.2539 5.51437V15.6691C21.2539 17.6054 19.666 19.1835 17.7116 19.1835H17.0042C16.4543 19.1835 15.9389 19.3959 15.5613 19.7736L15.5582 19.7767L13.9666 21.3498L13.9662 21.3501C12.9481 22.3551 11.2965 22.3551 10.2784 21.3501L10.278 21.3498L8.68642 19.7767L8.6833 19.7736C8.30656 19.3969 7.7823 19.1835 7.2404 19.1835H6.54232C4.58959 19.1835 3 17.6163 3 15.6691V5.51437ZM15.6986 7.12837C15.1543 6.97596 14.5608 7.19113 14.2493 7.68063L14.2493 7.68061L14.2448 7.68777C13.5693 8.77614 12.8392 10.0118 12.2059 11.092L12.2059 11.092L12.2039 11.0955C11.9669 11.5048 11.9669 12.0242 12.2039 12.4335C12.4451 12.8501 12.8928 13.0962 13.3649 13.0962H15.1373V13.6866C15.1373 14.1008 15.4731 14.4366 15.8873 14.4366C16.3015 14.4366 16.6373 14.1008 16.6373 13.6866V13.0962H16.7808C17.195 13.0962 17.5308 12.7604 17.5308 12.3462C17.5308 11.932 17.195 11.5962 16.7808 11.5962H16.6373V8.37188C16.6373 7.803 16.2642 7.28674 15.6986 7.12837ZM15.1373 9.10015V11.5962H13.6492C14.1226 10.79 14.6379 9.91948 15.1373 9.10015Z" fill="#0E110E"/>
</svg>
