<svg width="21" height="23" viewBox="0 0 21 23" fill="none" xmlns="http://www.w3.org/2000/svg">
<path d="M17 11V4.749C17.0001 4.67006 16.9845 4.59189 16.9543 4.51896C16.9241 4.44603 16.8798 4.37978 16.824 4.324L13.676 1.176C13.5636 1.06345 13.4111 1.00014 13.252 1H1.6C1.44087 1 1.28826 1.06321 1.17574 1.17574C1.06321 1.28826 1 1.44087 1 1.6V20.4C1 20.5591 1.06321 20.7117 1.17574 20.8243C1.28826 20.9368 1.44087 21 1.6 21H10M5 9H13M5 5H9M5 13H8" stroke="#0E110E" stroke-width="1.5" stroke-linecap="round" stroke-linejoin="round"/>
<path d="M13 1V4.4C13 4.55913 13.0632 4.71174 13.1757 4.82426C13.2883 4.93679 13.4409 5 13.6 5H17M16.992 14.125L19.548 14.774C19.814 14.842 20.001 15.084 19.993 15.358C19.821 21.116 16.5 22 16.5 22C16.5 22 13.179 21.116 13.007 15.358C13.0043 15.2247 13.0468 15.0944 13.1276 14.9883C13.2084 14.8823 13.3227 14.8067 13.452 14.774L16.008 14.125C16.331 14.043 16.669 14.043 16.992 14.125Z" stroke="#0E110E" stroke-width="1.5" stroke-linecap="round" stroke-linejoin="round"/>
</svg>
