<svg xmlns="http://www.w3.org/2000/svg" width="18" height="18" viewBox="0 0 18 18" fill="none">
  <path fill-rule="evenodd" clip-rule="evenodd" d="M7.09478 2.83842L6.9727 3.56532C7.39347 3.55343 7.81425 3.54749 8.23504 3.54749C9.16711 3.54749 10.1001 3.565 11.033 3.59965L10.9049 2.84302C10.8422 2.45825 10.8025 2.32014 10.7296 2.23617C10.6893 2.1897 10.5487 2.0625 9.98259 2.0625H8.01759C7.44302 2.0625 7.30674 2.18616 7.27041 2.22736C7.20133 2.3057 7.16234 2.43732 7.09478 2.83842ZM5.98536 2.65184L5.82401 3.61256C5.12409 3.65034 4.42419 3.70457 3.72434 3.77525L2.19516 3.92517C1.88598 3.95548 1.65991 4.23069 1.69022 4.53987C1.72054 4.84905 1.99575 5.07511 2.30492 5.0448L3.83492 4.8948L3.83657 4.89464C5.30288 4.74653 6.76902 4.67249 8.23504 4.67249C10.721 4.67249 13.215 4.79902 15.6946 5.04474C16.0037 5.07538 16.2792 4.8496 16.3098 4.54046C16.3404 4.23131 16.1147 3.95586 15.8055 3.92523C14.6005 3.80582 13.392 3.71413 12.1824 3.651L12.1797 3.63364L12.015 2.66033L12.0079 2.61668C11.9586 2.31004 11.8847 1.85082 11.5793 1.49883C11.2259 1.09155 10.6839 0.9375 9.98259 0.9375H8.01759C7.32466 0.9375 6.78219 1.08009 6.42664 1.48327C6.12162 1.82915 6.04585 2.28674 5.99421 2.59865L5.98536 2.65184ZM14.6988 6.89122C14.7188 6.5812 14.4837 6.31366 14.1737 6.29365C13.8637 6.27364 13.5961 6.50874 13.5761 6.81875L13.0888 14.3682L13.0887 14.3697C13.0675 14.6718 13.0496 14.9113 13.0076 15.1201C12.9666 15.3235 12.9098 15.4571 12.8363 15.5527C12.7097 15.7175 12.397 15.9375 11.4074 15.9375H6.59245C5.60287 15.9375 5.29017 15.7175 5.16355 15.5527C5.09012 15.4571 5.03327 15.3235 4.99231 15.1201C4.95026 14.9113 4.93235 14.6718 4.91118 14.3697L4.91107 14.3682L4.42378 6.81875C4.40377 6.50874 4.13623 6.27364 3.82621 6.29365C3.5162 6.31366 3.2811 6.5812 3.30112 6.89122L3.78861 14.4437L3.78982 14.461C3.80958 14.7432 3.83131 15.0535 3.88946 15.3423C3.94975 15.6416 4.05602 15.9576 4.27135 16.2379C4.72223 16.825 5.48952 17.0625 6.59245 17.0625H11.4074C12.5104 17.0625 13.2777 16.825 13.7285 16.2379C13.9439 15.9576 14.0501 15.6416 14.1104 15.3423C14.1686 15.0535 14.1903 14.7432 14.2101 14.4611L14.2111 14.4468L14.6988 6.89122ZM7.18506 12.375C7.18506 12.0643 7.4369 11.8125 7.74756 11.8125H10.2451C10.5557 11.8125 10.8076 12.0643 10.8076 12.375C10.8076 12.6857 10.5557 12.9375 10.2451 12.9375H7.74756C7.4369 12.9375 7.18506 12.6857 7.18506 12.375ZM7.125 8.8125C6.81434 8.8125 6.5625 9.06434 6.5625 9.375C6.5625 9.68566 6.81434 9.9375 7.125 9.9375H10.875C11.1857 9.9375 11.4375 9.68566 11.4375 9.375C11.4375 9.06434 11.1857 8.8125 10.875 8.8125H7.125Z" fill="#FF3B3B"/>
</svg>