<svg width="40" height="40" viewBox="0 0 40 40" fill="none" xmlns="http://www.w3.org/2000/svg">
<rect width="40" height="40" rx="8" fill="#8A8D91" fill-opacity="0.05"/>
<path d="M30.411 16.1213H28.9063C28.4358 16.1213 28.0818 16.2522 27.8815 16.715L24.9933 23.3009H27.043C27.043 23.3009 27.383 22.4174 27.4529 22.2305H29.9498C30.0104 22.4782 30.1874 23.3009 30.1874 23.3009H31.9995L30.411 16.1213ZM28.0119 20.7581C28.1703 20.3468 28.7759 18.7435 28.7759 18.7435C28.7759 18.7435 28.9436 18.3229 29.0414 18.0658L29.1719 18.6828C29.1719 18.6828 29.5492 20.3935 29.6237 20.7581H28.0119Z" fill="#252AA3"/>
<path d="M22.395 18.1174C22.3904 18.4493 22.8143 18.6736 23.4944 19.0055C24.6171 19.5197 25.1388 20.1366 25.1248 20.9593C25.1155 22.4504 23.7832 23.4132 21.7382 23.4132C20.8624 23.4039 20.0239 23.2263 19.5674 23.03L19.8422 21.422L20.0891 21.5342C20.7273 21.8006 21.1466 21.9128 21.9245 21.9128C22.4835 21.9128 23.0845 21.6931 23.0938 21.2117C23.0984 20.8939 22.8376 20.6695 22.0829 20.3189C21.3376 19.9777 20.3593 19.4028 20.3733 18.3745C20.3826 16.9816 21.7428 16 23.6668 16C24.4214 16 25.0317 16.1589 25.4137 16.3038L25.1481 17.8556L24.9711 17.7762C24.6078 17.6313 24.1466 17.4957 23.5084 17.5004C22.7491 17.4957 22.395 17.8183 22.395 18.1174Z" fill="#252AA3"/>
<path d="M19.5574 16.1262L18.3416 23.3011H16.3944L16.632 21.9082L17.0186 19.6178L17.6056 16.1309L19.5574 16.1262Z" fill="#252AA3"/>
<path d="M12.5606 19.8234C11.9084 18.1641 10.3525 16.7852 8 16.215L8.02329 16.0701H11.0466C11.4565 16.0888 11.7873 16.215 11.8991 16.6543L12.5606 19.8234Z" fill="#252AA3"/>
<path d="M16.8183 16.1355L13.7484 23.2963H11.6894L9.9425 17.3134C11.1956 18.122 12.2624 19.4027 12.6397 20.2908L12.8447 21.034L14.7546 16.1355H16.8183Z" fill="#252AA3"/>
</svg>
