<svg xmlns="http://www.w3.org/2000/svg" width="15" height="16" viewBox="0 0 15 16" fill="none">
  <path d="M8.58125 2.69365L9.68125 4.89365C9.83125 5.1999 10.2312 5.49365 10.5687 5.5499L12.5625 5.88115C13.8375 6.09365 14.1375 7.01865 13.2187 7.93115L11.6687 9.48115C11.4062 9.74365 11.2625 10.2499 11.3437 10.6124L11.7875 12.5312C12.1375 14.0499 11.3312 14.6374 9.9875 13.8437L8.11875 12.7374C7.78125 12.5374 7.225 12.5374 6.88125 12.7374L5.0125 13.8437C3.675 14.6374 2.8625 14.0437 3.2125 12.5312L3.65625 10.6124C3.7375 10.2499 3.59375 9.74365 3.33125 9.48115L1.78125 7.93115C0.868747 7.01865 1.1625 6.09365 2.4375 5.88115L4.43125 5.5499C4.7625 5.49365 5.1625 5.1999 5.3125 4.89365L6.4125 2.69365C7.0125 1.4999 7.9875 1.4999 8.58125 2.69365Z" fill="#FEBA00"/>
</svg>