<svg width="49" height="54" viewBox="0 0 49 54" fill="none" xmlns="http://www.w3.org/2000/svg">
<path fill-rule="evenodd" clip-rule="evenodd" d="M28.1864 0.866699H5.0198C2.78744 0.866699 0.966553 2.68758 0.966553 4.92053V43.1126C5.62324 23.5156 20.2848 8.74602 34.9064 8.04221C33.8539 9.97641 33.8906 12.9493 33.9315 16.2681C33.9911 21.1048 34.0598 26.676 30.7798 30.8378V30.8379L30.7798 30.8378C27.7867 34.6363 22.0059 37.2626 10.8745 37.0789C12.588 28.6137 18.009 20.1145 25.5666 12.8251C13.6029 18.6452 4.39405 35.0038 2.20981 53.0295H22.6058V42.0954H28.1864C29.0816 42.0954 29.9627 42.0373 30.8279 41.9251C40.9302 40.6185 48.8008 31.9244 48.8008 21.4816C48.8008 10.1431 39.525 0.866699 28.1864 0.866699Z" fill="#4B8E4B"/>
</svg>
