<svg width="100" height="100" viewBox="0 0 100 100" fill="none" xmlns="http://www.w3.org/2000/svg">
<path fill-rule="evenodd" clip-rule="evenodd" d="M54.5522 12.6667H21.457C18.2679 12.6667 15.6666 15.268 15.6666 18.4579V73.0181C22.319 45.0223 43.2641 23.9229 64.1522 22.9175C62.6486 25.6806 62.7009 29.9276 62.7594 34.6688C62.8446 41.5782 62.9427 49.5372 58.257 55.4827C53.9811 60.9091 45.7228 64.6609 29.8209 64.3984C32.2687 52.3053 40.0129 40.1636 50.8096 29.7502C33.7186 38.0646 20.563 61.434 17.4427 87.185H46.5798V71.5648H54.5521C55.831 71.5648 57.0897 71.4818 58.3257 71.3217C72.7576 69.455 84.0012 57.0349 84.0012 42.1166C84.0012 25.9187 70.7501 12.6667 54.5522 12.6667Z" fill="#4B8E4B"/>
</svg>
